<svg width="490" height="96" viewBox="0 0 490 96" fill="none" xmlns="http://www.w3.org/2000/svg">
<path d="M31.628 36.512C30.1826 36.512 29 37.6946 29 39.14V73.304C29 76.1948 31.3652 78.56 34.256 78.56H68.42C69.8654 78.56 71.048 77.3774 71.048 75.932C71.048 74.4866 69.8654 73.304 68.42 73.304H36.884C35.4386 73.304 34.256 72.1214 34.256 70.676V39.14C34.256 37.6946 33.0734 36.512 31.628 36.512ZM76.304 26H44.768C41.8772 26 39.512 28.3652 39.512 31.256V62.792C39.512 65.6828 41.8772 68.048 44.768 68.048H76.304C79.1948 68.048 81.56 65.6828 81.56 62.792V31.256C81.56 28.3652 79.1948 26 76.304 26ZM55.28 58.85V35.198L69.6552 45.9728C70.3647 46.4984 70.3647 47.5496 69.6552 48.0752L55.28 58.85Z" fill="#9C1010"/>
<path d="M126.863 8.92H127.151C128.751 9.752 129.551 10.68 129.551 11.704L127.151 29.944C127.151 36.6 129.135 50.392 133.103 71.32L137.903 83.32C137.903 84.152 137.231 85.08 135.887 86.104H134.063C132.783 85.72 130.863 81.784 128.303 74.296C126.639 68.28 124.975 59 123.311 46.456H122.735C119.023 57.464 116.399 63.16 114.863 63.544L113.327 63.928C111.983 63.928 110.319 61.304 108.335 56.056H107.663C106.895 71.864 105.391 79.768 103.151 79.768H102.863C100.815 79.768 99.6946 78.168 99.5026 74.968C101.103 68.824 101.903 62.424 101.903 55.768L99.3106 30.328V28.504C99.3106 26.072 100.175 24.856 101.903 24.856C104.399 24.856 106.607 29.752 108.527 39.544C111.343 48.44 113.071 53.24 113.711 53.944C115.183 51.64 116.655 47.544 118.127 41.656C119.279 38.648 120.399 33.944 121.487 27.544L121.103 27.256L121.487 25.72V25.144C122.063 14.328 123.855 8.92 126.863 8.92ZM156.293 42.808C161.029 42.808 164.613 46.328 167.045 53.368L167.429 55.384C167.429 62.232 164.229 69.24 157.829 76.408C155.269 78.776 152.677 79.96 150.053 79.96C146.213 79.96 143.493 77.752 141.893 73.336C141.317 71.288 141.029 69.496 141.029 67.96V66.808C141.029 56.696 144.709 49.016 152.069 43.768C153.349 43.128 154.757 42.808 156.293 42.808ZM146.693 67.768C146.693 72.12 147.813 74.296 150.053 74.296C154.725 74.296 158.597 68.312 161.669 56.344V54.52C160.581 50.552 158.565 48.568 155.621 48.568C154.469 48.568 153.893 49.368 153.893 50.968C153.893 52.056 152.613 52.92 150.053 53.56C147.813 57.336 146.693 62.072 146.693 67.768ZM173.123 46.648C174.595 46.648 176.195 50.168 177.923 57.208C180.355 62.84 181.731 65.816 182.051 66.136C182.371 66.136 183.555 62.936 185.603 56.536C187.651 50.136 189.603 46.936 191.459 46.936C193.187 47.576 194.051 48.6 194.051 50.008C188.739 63.704 186.083 72.76 186.083 77.176L184.259 79H182.435C180.131 77.336 176.227 68.536 170.723 52.6L169.859 49.048C170.307 47.448 171.395 46.648 173.123 46.648ZM199.273 28.984C201.705 29.496 202.921 30.584 202.921 32.248C202.281 34.04 201.257 34.936 199.849 34.936C197.481 34.488 196.297 33.304 196.297 31.384C196.937 29.784 197.929 28.984 199.273 28.984ZM202.921 42.424C203.945 42.424 204.809 43.352 205.513 45.208L204.649 52.024V56.536C204.649 61.784 205.545 68.664 207.337 77.176C206.697 78.392 205.609 79 204.073 79C201.449 79 199.721 71.32 198.889 55.96V52.6C198.889 45.816 200.233 42.424 202.921 42.424ZM220.917 44.536C223.477 44.6 227.797 49.08 233.877 57.976L234.069 59.608C234.069 61.4 229.685 62.776 220.917 63.736L220.629 64.024V64.408C221.973 70.168 223.381 73.048 224.853 73.048H226.005C228.053 73.048 231.157 70.84 235.317 66.424H235.893C237.173 66.424 238.165 67.352 238.869 69.208C238.869 70.744 236.181 73.4 230.805 77.176C229.397 78.008 227.701 78.616 225.717 79C220.533 79 216.917 74.136 214.869 64.408C211.925 63.96 210.453 62.744 210.453 60.76C210.453 59.352 211.541 58.424 213.717 57.976V58.36L214.677 57.976V55.576C214.677 48.216 216.757 44.536 220.917 44.536ZM221.493 51.448H220.629L220.245 55V57.976H220.629C224.213 57.848 226.005 57.464 226.005 56.824C224.341 54.328 222.837 52.536 221.493 51.448ZM283.258 29.944C284.794 29.944 285.786 32.344 286.234 37.144L286.618 42.328C286.618 46.232 285.914 56.408 284.506 72.856H285.082V73.144L285.466 72.856H286.234L297.466 73.72H298.234L303.034 72.28H303.706C304.73 72.92 305.434 73.816 305.818 74.968C305.818 77.4 303.098 78.904 297.658 79.48L287.866 78.52H286.042L281.434 79.768C279.706 79.128 278.842 78.104 278.842 76.696L280.858 43.768V42.328L280.282 32.728C280.282 31.128 281.274 30.2 283.258 29.944ZM326.979 41.944C329.795 41.944 331.203 43.064 331.203 45.304L330.339 47.128L329.763 64.696C329.763 72.632 331.363 77.56 334.563 79.48L334.755 80.92C334.563 82.776 333.699 83.704 332.163 83.704H331.587C326.787 80.44 324.387 75.448 324.387 68.728H323.715C321.155 75.896 318.051 79.48 314.403 79.48C311.011 78.52 309.315 75.992 309.315 71.896C309.315 62.872 312.931 53.88 320.163 44.92C322.595 42.936 324.867 41.944 326.979 41.944ZM315.363 68.056L314.979 70.744V72.568H315.939C320.739 60.6 323.139 53.304 323.139 50.68H322.755C319.043 54.84 316.579 60.632 315.363 68.056ZM349.538 46.648C354.978 47.096 357.698 49.752 357.698 54.616L357.89 55.864L357.698 70.84C357.698 72.568 358.69 74.904 360.674 77.848V78.04C360.162 79.896 359.234 80.824 357.89 80.824C353.922 79.16 351.938 75.64 351.938 70.264V69.016L351.65 68.824L351.938 68.44V68.248L352.226 55C352.226 53.144 351.426 52.216 349.826 52.216H348.674C345.474 53.496 343.874 60.504 343.874 73.24C343.874 77.656 342.754 79.864 340.514 79.864C338.786 79.864 337.89 78.776 337.826 76.6V67C337.826 54.584 338.914 48.376 341.09 48.376L342.05 48.088L344.066 48.376C345.794 47.224 347.618 46.648 349.538 46.648ZM386.243 26.296C387.331 26.296 388.323 27.32 389.219 29.368L384.995 56.056V63.544C384.995 71.352 386.211 75.256 388.643 75.256C390.243 76.024 391.043 77.048 391.043 78.328C391.043 79.8 389.763 80.664 387.203 80.92C384.387 80.92 382.179 78.328 380.579 73.144H379.619C377.251 78.328 374.371 80.92 370.979 80.92C367.011 80.92 364.611 77.912 363.779 71.896C363.779 64.92 368.451 57.528 377.795 49.72C379.651 49.72 380.579 47.128 380.579 41.944C381.987 31.512 383.875 26.296 386.243 26.296ZM369.443 71.128V73.72L370.979 75.256H371.555C373.603 75.256 376.003 69.08 378.755 56.728H378.179C372.355 62.552 369.443 67.352 369.443 71.128Z" fill="#9C1010"/>
</svg>
